<?xml version="1.0" standalone="no"?>
<!DOCTYPE svg PUBLIC "-//W3C//DTD SVG 20010904//EN"
 "http://www.w3.org/TR/2001/REC-SVG-20010904/DTD/svg10.dtd">
<svg version="1.0" xmlns="http://www.w3.org/2000/svg"
 width="50.000000pt" height="50.000000pt" viewBox="0 0 50.000000 50.000000"
 preserveAspectRatio="xMidYMid meet">

<g transform="translate(0.000000,50.000000) scale(0.100000,-0.100000)"
fill="#000000" stroke="none">
<path d="M176 455 c-181 -64 -207 -293 -46 -403 39 -26 50 -28 50 -7 0 9 -9
15 -25 15 -13 0 -29 6 -34 13 -48 57 -60 75 -54 81 12 12 32 6 62 -20 21 -17
37 -24 49 -19 14 6 12 10 -14 21 -50 21 -74 59 -74 115 0 26 5 51 10 54 6 3
10 23 10 44 0 48 4 51 43 39 49 -15 148 -15 185 -1 42 17 52 11 52 -37 0 -21
5 -42 10 -45 6 -3 10 -29 10 -57 0 -44 -4 -54 -34 -84 -19 -19 -40 -34 -47
-34 -10 0 -13 -13 -11 -50 4 -55 4 -55 35 -39 50 26 98 84 114 138 51 178
-117 338 -291 276z"/>
</g>
</svg>
