<?xml version="1.0" standalone="no"?>
<!DOCTYPE svg PUBLIC "-//W3C//DTD SVG 20010904//EN"
 "http://www.w3.org/TR/2001/REC-SVG-20010904/DTD/svg10.dtd">
<svg version="1.0" xmlns="http://www.w3.org/2000/svg"
 width="50.000000pt" height="50.000000pt" viewBox="0 0 50.000000 50.000000"
 preserveAspectRatio="xMidYMid meet">

<g transform="translate(0.000000,50.000000) scale(0.100000,-0.100000)"
fill="#000000" stroke="none">
<path d="M91 453 c-50 -25 -61 -62 -61 -203 0 -201 19 -220 219 -220 203 0
221 17 221 220 0 202 -19 220 -222 220 -94 0 -131 -4 -157 -17z m316 -46 c15
-14 19 -39 21 -129 4 -132 -7 -184 -44 -198 -28 -11 -204 -13 -253 -4 -48 10
-61 44 -61 167 0 116 12 164 44 178 11 5 78 8 148 6 107 -2 130 -5 145 -20z"/>
<path d="M351 376 c-9 -10 -8 -16 3 -25 10 -9 16 -8 25 3 9 10 8 16 -3 25 -10
9 -16 8 -25 -3z"/>
<path d="M211 357 c-98 -35 -101 -173 -5 -213 92 -38 183 47 152 141 -22 64
-84 95 -147 72z m89 -57 c43 -43 11 -120 -50 -120 -38 0 -70 32 -70 70 0 17 9
39 20 50 11 11 33 20 50 20 17 0 39 -9 50 -20z"/>
</g>
</svg>
