<?xml version="1.0" standalone="no"?>
<!DOCTYPE svg PUBLIC "-//W3C//DTD SVG 20010904//EN"
 "http://www.w3.org/TR/2001/REC-SVG-20010904/DTD/svg10.dtd">
<svg version="1.0" xmlns="http://www.w3.org/2000/svg"
 width="50.000000pt" height="50.000000pt" viewBox="0 0 50.000000 50.000000"
 preserveAspectRatio="xMidYMid meet">

<g transform="translate(0.000000,50.000000) scale(0.100000,-0.100000)"
fill="#000000" stroke="none">
<path d="M155 461 c-162 -74 -187 -291 -47 -398 81 -62 177 -67 262 -15 68 42
103 99 108 176 2 36 -1 81 -8 101 -16 50 -75 114 -125 136 -52 24 -138 24
-190 0z m29 -113 c14 -24 -3 -52 -34 -56 -41 -6 -60 46 -26 71 17 11 48 4 60
-15z m96 7 c7 -9 10 -25 6 -40 -6 -22 -11 -26 -39 -23 -25 2 -33 8 -35 26 -7
44 41 70 68 37z m100 1 c6 -8 10 -25 8 -38 -2 -18 -10 -24 -35 -26 -28 -3 -33
1 -39 23 -11 45 37 75 66 41z m-109 -96 c25 -14 25 -56 -1 -70 -45 -24 -86 44
-42 69 21 13 20 13 43 1z m14 -134 c0 -52 -63 -62 -73 -12 -7 33 6 47 40 44
29 -3 33 -7 33 -32z"/>
</g>
</svg>
